<svg width="20" height="20" viewBox="0 0 20 20" fill="none" xmlns="http://www.w3.org/2000/svg">
<path d="M20.0009 10.2219C20.0009 9.39969 19.9328 8.7997 19.7855 8.17749H10.2051V11.8885H15.8285C15.7152 12.8108 15.103 14.1996 13.7424 15.1329L13.7234 15.2571L16.7525 17.5568L16.9624 17.5774C18.8897 15.8329 20.0009 13.2663 20.0009 10.2219Z" fill="#4285F4"/>
<path d="M10.2044 19.9995C12.9594 19.9995 15.2723 19.1106 16.9616 17.5773L13.7417 15.1328C12.8801 15.7217 11.7236 16.1328 10.2044 16.1328C7.50604 16.1328 5.21585 14.3884 4.39946 11.9773L4.27979 11.9873L1.13006 14.3761L1.08887 14.4884C2.76683 17.755 6.21349 19.9995 10.2044 19.9995Z" fill="#34A853"/>
<path d="M4.39997 11.9777C4.18456 11.3555 4.05989 10.6888 4.05989 9.99992C4.05989 9.311 4.18456 8.64436 4.38864 8.02216L4.38293 7.88964L1.19372 5.4624L1.08937 5.51104C0.397801 6.8666 0.000976562 8.38883 0.000976562 9.99992C0.000976562 11.611 0.397801 13.1332 1.08937 14.4887L4.39997 11.9777Z" fill="#FBBC05"/>
<path d="M10.2044 3.86659C12.1205 3.86659 13.413 4.67769 14.15 5.35551L17.0297 2.59997C15.2611 0.988881 12.9595 0 10.2044 0C6.21352 0 2.76684 2.2444 1.08887 5.511L4.38814 8.02212C5.21587 5.61104 7.50608 3.86659 10.2044 3.86659Z" fill="#EB4335"/>
</svg>