<svg width="34" height="37" viewBox="0 0 34 37" fill="#fff" xmlns="http://www.w3.org/2000/svg">
    <path d="M14.5952 1.73118C15.256 1.1375 16.1129 0.809082 17.0012 0.809082C17.8895 0.809082 18.7464 1.1375 19.4072 1.73118L32.6072 13.592C32.9825 13.9295 33.2826 14.3421 33.4881 14.8031C33.6936 15.2642 33.7999 15.7632 33.8 16.268V33.2C33.8 34.1548 33.4207 35.0704 32.7456 35.7456C32.0704 36.4207 31.1548 36.8 30.2 36.8H24.2C23.2452 36.8 22.3295 36.4207 21.6544 35.7456C20.9793 35.0704 20.6 34.1548 20.6 33.2V24.8C20.6 24.4817 20.4736 24.1765 20.2485 23.9515C20.0235 23.7264 19.7183 23.6 19.4 23.6H14.6C14.2817 23.6 13.9765 23.7264 13.7515 23.9515C13.5264 24.1765 13.4 24.4817 13.4 24.8V33.2C13.4 34.1548 13.0207 35.0704 12.3456 35.7456C11.6705 36.4207 10.7548 36.8 9.8 36.8H3.8C2.84522 36.8 1.92954 36.4207 1.25441 35.7456C0.579282 35.0704 0.199997 34.1548 0.199997 33.2V16.268C0.199997 15.248 0.631997 14.276 1.3952 13.592L14.5952 1.73118ZM17.8016 3.51678C17.5814 3.31911 17.2959 3.20977 17 3.20977C16.7041 3.20977 16.4186 3.31911 16.1984 3.51678L2.9984 15.3776C2.87335 15.4898 2.77327 15.6271 2.70464 15.7805C2.63601 15.9339 2.60036 16.0999 2.6 16.268V33.2C2.6 33.5182 2.72643 33.8235 2.95147 34.0485C3.17651 34.2736 3.48174 34.4 3.8 34.4H9.8C10.1183 34.4 10.4235 34.2736 10.6485 34.0485C10.8736 33.8235 11 33.5182 11 33.2V24.8C11 23.8452 11.3793 22.9295 12.0544 22.2544C12.7295 21.5793 13.6452 21.2 14.6 21.2H19.4C20.3548 21.2 21.2704 21.5793 21.9456 22.2544C22.6207 22.9295 23 23.8452 23 24.8V33.2C23 33.5182 23.1264 33.8235 23.3515 34.0485C23.5765 34.2736 23.8817 34.4 24.2 34.4H30.2C30.5183 34.4 30.8235 34.2736 31.0485 34.0485C31.2736 33.8235 31.4 33.5182 31.4 33.2V16.268C31.3996 16.0999 31.364 15.9339 31.2954 15.7805C31.2267 15.6271 31.1266 15.4898 31.0016 15.3776L17.8016 3.51678Z"/>
</svg>