<svg width="32" height="42" viewBox="0 0 32 42" fill="#fff" xmlns="http://www.w3.org/2000/svg">
<path d="M16 4C20.4 4 24 7.6 24 12C24 16.2 19.8 23 16 27.8C12.2 22.8 8 16.2 8 12C8 7.6 11.6 4 16 4ZM16 0C9.4 0 4 5.4 4 12C4 21 16 34 16 34C16 34 28 20.8 28 12C28 5.4 22.6 0 16 0ZM16 8C13.8 8 12 9.8 12 12C12 14.2 13.8 16 16 16C18.2 16 20 14.2 20 12C20 9.8 18.2 8 16 8ZM32 34C32 38.4 24.8 42 16 42C7.2 42 0 38.4 0 34C0 31.4 2.4 29.2 6.2 27.6L7.4 29.4C5.4 30.4 4 31.6 4 33C4 35.8 9.4 38 16 38C22.6 38 28 35.8 28 33C28 31.6 26.6 30.4 24.4 29.4L25.6 27.6C29.6 29.2 32 31.4 32 34Z" />
</svg>