<svg width="34" height="34" viewBox="0 0 34 34" fill="#fff" xmlns="http://www.w3.org/2000/svg">
<path d="M16 15.5C14.5166 15.5 13.0666 15.0601 11.8332 14.236C10.5999 13.4119 9.63856 12.2406 9.0709 10.8701C8.50325 9.49968 8.35472 7.99168 8.64411 6.53683C8.9335 5.08197 9.64781 3.7456 10.6967 2.6967C11.7456 1.64781 13.082 0.933503 14.5368 0.644114C15.9917 0.354725 17.4997 0.50325 18.8701 1.07091C20.2406 1.63856 21.4119 2.59986 22.236 3.83323C23.0601 5.0666 23.5 6.51664 23.5 8C23.5 9.98913 22.7098 11.8968 21.3033 13.3033C19.8968 14.7098 17.9891 15.5 16 15.5ZM16 3.5C15.11 3.5 14.24 3.76392 13.4999 4.25839C12.7599 4.75286 12.1831 5.45566 11.8425 6.27793C11.5019 7.10019 11.4128 8.005 11.5865 8.87791C11.7601 9.75082 12.1887 10.5526 12.818 11.182C13.4474 11.8113 14.2492 12.2399 15.1221 12.4135C15.995 12.5872 16.8998 12.4981 17.7221 12.1575C18.5443 11.8169 19.2471 11.2401 19.7416 10.5001C20.2361 9.76005 20.5 8.89002 20.5 8C20.5 6.80653 20.0259 5.66194 19.182 4.81802C18.3381 3.97411 17.1935 3.5 16 3.5ZM30 29.5C29.6038 29.4948 29.2253 29.3351 28.9451 29.0549C28.6649 28.7747 28.5052 28.3962 28.5 28C28.5 24.1 26.38 21.5 16 21.5C5.62 21.5 3.5 24.1 3.5 28C3.5 28.3978 3.34196 28.7794 3.06066 29.0607C2.77936 29.342 2.39782 29.5 2 29.5C1.60218 29.5 1.22064 29.342 0.93934 29.0607C0.658035 28.7794 0.5 28.3978 0.5 28C0.5 18.5 11.36 18.5 16 18.5C20.64 18.5 31.5 18.5 31.5 28C31.4948 28.3962 31.3351 28.7747 31.0549 29.0549C30.7747 29.3351 30.3962 29.4948 30 29.5Z"/>
</svg>