<svg width="34" height="34" viewBox="0 0 34 34" fill="#fff" xmlns="http://www.w3.org/2000/svg">
<path d="M7.40001 0.200195C5.49045 0.200195 3.65911 0.958765 2.30884 2.30903C0.958582 3.65929 0.200012 5.49064 0.200012 7.4002V11.0002C0.200012 11.3185 0.326441 11.6237 0.551484 11.8487C0.776528 12.0738 1.08175 12.2002 1.40001 12.2002C1.71827 12.2002 2.0235 12.0738 2.24854 11.8487C2.47358 11.6237 2.60001 11.3185 2.60001 11.0002V7.4002C2.60001 6.12716 3.10573 4.90626 4.0059 4.00608C4.90607 3.10591 6.12697 2.6002 7.40001 2.6002H11C11.3183 2.6002 11.6235 2.47377 11.8485 2.24872C12.0736 2.02368 12.2 1.71846 12.2 1.4002C12.2 1.08194 12.0736 0.776711 11.8485 0.551667C11.6235 0.326624 11.3183 0.200195 11 0.200195H7.40001ZM23 0.200195C22.6818 0.200195 22.3765 0.326624 22.1515 0.551667C21.9264 0.776711 21.8 1.08194 21.8 1.4002C21.8 1.71846 21.9264 2.02368 22.1515 2.24872C22.3765 2.47377 22.6818 2.6002 23 2.6002H26.6C27.8731 2.6002 29.094 3.10591 29.9941 4.00608C30.8943 4.90626 31.4 6.12716 31.4 7.4002V11.0002C31.4 11.3185 31.5264 11.6237 31.7515 11.8487C31.9765 12.0738 32.2818 12.2002 32.6 12.2002C32.9183 12.2002 33.2235 12.0738 33.4485 11.8487C33.6736 11.6237 33.8 11.3185 33.8 11.0002V7.4002C33.8 5.49064 33.0414 3.65929 31.6912 2.30903C30.3409 0.958765 28.5096 0.200195 26.6 0.200195H23ZM2.60001 23.0002C2.60001 22.6819 2.47358 22.3767 2.24854 22.1517C2.0235 21.9266 1.71827 21.8002 1.40001 21.8002C1.08175 21.8002 0.776528 21.9266 0.551484 22.1517C0.326441 22.3767 0.200012 22.6819 0.200012 23.0002V26.6002C0.200012 28.5098 0.958582 30.3411 2.30884 31.6914C3.65911 33.0416 5.49045 33.8002 7.40001 33.8002H11C11.3183 33.8002 11.6235 33.6738 11.8485 33.4487C12.0736 33.2237 12.2 32.9185 12.2 32.6002C12.2 32.2819 12.0736 31.9767 11.8485 31.7517C11.6235 31.5266 11.3183 31.4002 11 31.4002H7.40001C6.12697 31.4002 4.90607 30.8945 4.0059 29.9943C3.10573 29.0941 2.60001 27.8732 2.60001 26.6002V23.0002ZM33.8 23.0002C33.8 22.6819 33.6736 22.3767 33.4485 22.1517C33.2235 21.9266 32.9183 21.8002 32.6 21.8002C32.2818 21.8002 31.9765 21.9266 31.7515 22.1517C31.5264 22.3767 31.4 22.6819 31.4 23.0002V26.6002C31.4 27.8732 30.8943 29.0941 29.9941 29.9943C29.094 30.8945 27.8731 31.4002 26.6 31.4002H23C22.6818 31.4002 22.3765 31.5266 22.1515 31.7517C21.9264 31.9767 21.8 32.2819 21.8 32.6002C21.8 32.9185 21.9264 33.2237 22.1515 33.4487C22.3765 33.6738 22.6818 33.8002 23 33.8002H26.6C28.5096 33.8002 30.3409 33.0416 31.6912 31.6914C33.0414 30.3411 33.8 28.5098 33.8 26.6002V23.0002ZM8.60001 15.8002C8.28175 15.8002 7.97653 15.9266 7.75148 16.1517C7.52644 16.3767 7.40001 16.6819 7.40001 17.0002C7.40001 17.3185 7.52644 17.6237 7.75148 17.8487C7.97653 18.0738 8.28175 18.2002 8.60001 18.2002H25.4C25.7183 18.2002 26.0235 18.0738 26.2485 17.8487C26.4736 17.6237 26.6 17.3185 26.6 17.0002C26.6 16.6819 26.4736 16.3767 26.2485 16.1517C26.0235 15.9266 25.7183 15.8002 25.4 15.8002H8.60001Z"/>
</svg>